<svg width="88" height="87" viewBox="0 0 88 87" fill="none" xmlns="http://www.w3.org/2000/svg">
<circle cx="44.4734" cy="43.491" r="43.491" fill="#95C83D" fill-opacity="0.06"/>
<path fill-rule="evenodd" clip-rule="evenodd" d="M21.2256 30.7982C21.2158 30.9217 21.2109 31.0451 21.2109 31.1702V53.9124C21.2109 55.2055 21.7243 56.4449 22.6388 57.3579C23.5518 58.2724 24.7912 58.7858 26.0843 58.7858H61.8221C63.1151 58.7858 64.3546 58.2724 65.2675 57.3579C66.1821 56.4449 66.6954 55.2055 66.6954 53.9124V31.1702C66.6954 31.0646 66.6921 30.959 66.6856 30.8551L46.4564 44.5621C44.9132 45.4848 42.9899 45.4816 41.4499 44.5572L21.2256 30.7982ZM22.556 27.8092L43.1215 41.7713C43.6348 42.08 44.2765 42.0816 44.7898 41.773L65.3861 27.8466C65.3471 27.8044 65.3081 27.7637 65.2675 27.7248C64.3546 26.8102 63.1151 26.2969 61.8221 26.2969H26.0843C24.7912 26.2969 23.5518 26.8102 22.6388 27.7248C22.6112 27.7524 22.5836 27.78 22.556 27.8092Z" fill="#95C83D"/>
</svg>
