<svg width="87" height="87" viewBox="0 0 87 87" fill="none" xmlns="http://www.w3.org/2000/svg">
<circle cx="43.491" cy="43.491" r="43.491" fill="#95C83D" fill-opacity="0.06"/>
<path d="M42.5886 20.2285C33.6053 20.2285 26.2969 27.5369 26.2969 36.5202C26.2969 47.6686 40.8764 64.0352 41.4971 64.7265C42.0802 65.3759 43.0981 65.3748 43.6801 64.7265C44.3008 64.0352 58.8804 47.6686 58.8804 36.5202C58.8802 27.5369 51.5718 20.2285 42.5886 20.2285ZM42.5886 44.717C38.0689 44.717 34.3919 41.0399 34.3919 36.5202C34.3919 32.0004 38.069 28.3235 42.5886 28.3235C47.1083 28.3235 50.7852 32.0005 50.7852 36.5203C50.7852 41.04 47.1083 44.717 42.5886 44.717Z" fill="#95C83D"/>
</svg>
