<svg width="88" height="87" viewBox="0 0 88 87" fill="none" xmlns="http://www.w3.org/2000/svg">
<circle cx="44.4558" cy="43.491" r="43.491" fill="#95C83D" fill-opacity="0.06"/>
<path d="M64.0694 53.6003L58.4929 48.0238C56.5013 46.0322 53.1156 46.829 52.319 49.418C51.7215 51.2105 49.7299 52.2063 47.9374 51.8079C43.9542 50.8121 38.5769 45.6339 37.5811 41.4515C36.9836 39.659 38.1785 37.6674 39.971 37.07C42.5601 36.2734 43.3567 32.8876 41.3651 30.896L35.7886 25.3195C34.1953 23.9254 31.8054 23.9254 30.4113 25.3195L26.6272 29.1036C22.8432 33.0868 27.0255 43.6423 36.3861 53.0029C45.7467 62.3634 56.3022 66.745 60.2854 62.7617L64.0694 58.9777C65.4636 57.3844 65.4636 54.9945 64.0694 53.6003Z" fill="#95C83D"/>
</svg>
